<svg width="1em" height="1em" viewBox="0 0 100 100" fill="currentColor" xmlns="http://www.w3.org/2000/svg">
<path d="M99.7455 27.8386V16.7575C99.7408 12.3146 97.9792 8.05503 94.8473 4.91343C91.7153 1.77184 87.4689 0.00478844 83.0397 0H16.7574C12.3281 0.00478748 8.08143 1.77177 4.94919 4.91331C1.81696 8.05485 0.0549081 12.3144 0.0496041 16.7575V28.6366C-0.0165347 29.0743 -0.0165347 29.5195 0.0496041 29.9572V83.2425C0.0549081 87.6856 1.81696 91.9452 4.94919 95.0867C8.08143 98.2282 12.3281 99.9952 16.7574 100H83.0397C87.4689 99.9952 91.7153 98.2282 94.8473 95.0866C97.9792 91.945 99.7408 87.6854 99.7455 83.2425V30.7552C100.085 29.8128 100.085 28.781 99.7455 27.8386V27.8386ZM91.1973 83.2425C91.1946 85.4093 90.3354 87.4865 88.808 89.0186C87.2806 90.5507 85.2098 91.4126 83.0497 91.4152H16.7574C14.5974 91.4126 12.5266 90.5507 10.9992 89.0186C9.47181 87.4865 8.61257 85.4093 8.60991 83.2425V33.5953H91.1973V83.2425ZM91.1973 24.9985H8.60991V16.7575C8.61257 14.5907 9.47181 12.5135 10.9992 10.9814C12.5266 9.44931 14.5974 8.58741 16.7574 8.58475H83.0397C85.2015 8.58475 87.2749 9.44548 88.8044 10.9779C90.334 12.5103 91.1946 14.589 91.1973 16.7575V24.9985Z" />
<path d="M15 16.4954C14.9991 17.3857 15.2696 18.2563 15.7774 18.997C16.2852 19.7377 17.0075 20.3151 17.8527 20.6564C18.698 20.9976 19.6283 21.0872 20.526 20.9139C21.4236 20.7406 22.2483 20.3122 22.8955 19.6828C23.5428 19.0534 23.9836 18.2514 24.1622 17.3782C24.3408 16.505 24.2492 15.5999 23.8988 14.7774C23.5485 13.9549 22.9553 13.252 22.1942 12.7576C21.4331 12.2632 20.5384 11.9996 19.6232 12C18.3971 12 17.2211 12.4739 16.3541 13.3174C15.4871 14.1608 15 15.3049 15 16.4977V16.4954ZM28.8744 16.4954C28.8735 17.3857 29.144 18.2561 29.6517 18.9967C30.1594 19.7374 30.8815 20.3149 31.7266 20.6561C32.5717 20.9974 33.5019 21.0872 34.3995 20.9141C35.2971 20.741 36.1218 20.3127 36.7691 19.6836C37.4165 19.0544 37.8575 18.2526 38.0364 17.3796C38.2152 16.5065 38.1239 15.6015 37.7739 14.779C37.424 13.9564 36.8311 13.2534 36.0703 12.7587C35.3096 12.264 34.4151 12 33.5 12C32.2736 12 31.0974 12.4738 30.23 13.3172C29.3626 14.1606 28.875 15.3046 28.8744 16.4977V16.4954ZM42.7488 16.4954C42.7479 17.3857 43.0184 18.2561 43.5261 18.9967C44.0338 19.7374 44.7559 20.3149 45.601 20.6561C46.4462 20.9974 47.3764 21.0872 48.2739 20.9141C49.1715 20.741 49.9962 20.3127 50.6435 19.6836C51.2909 19.0544 51.7319 18.2526 51.9108 17.3796C52.0896 16.5065 51.9983 15.6015 51.6483 14.779C51.2984 13.9564 50.7055 13.2534 49.9447 12.7587C49.184 12.264 48.2895 12 47.3744 12C46.148 12 44.9719 12.4738 44.1045 13.3172C43.2371 14.1606 42.7495 15.3046 42.7488 16.4977V16.4954Z" />
</svg>
